<?xml version="1.0" encoding="utf-8"?>
<!-- Generator: Adobe Illustrator 24.2.1, SVG Export Plug-In . SVG Version: 6.00 Build 0)  -->
<svg version="1.1" id="svg-logo" xmlns="http://www.w3.org/2000/svg" xmlns:xlink="http://www.w3.org/1999/xlink" viewBox="0 0 1920 1080" preserveAspectRatio="xMidYMid meet" xml:space="preserve">
	<line id="L1C" class="st0" x1="352" y1="710" x2="530" y2="401"/>
	<line id="L1B" class="st0" x1="530" y1="401" x2="709" y2="711"/>
	<line id="L1A" class="st0" x1="709" y1="711" x2="352" y2="711"/>
	<line id="L2A1" class="st1" x1="352" y1="711" x2="530" y2="893"/>
	<line id="L2A2" class="st1" x1="709" y1="711" x2="530" y2="893"/>
	<line id="L2B1" class="st1" x1="709" y1="711" x2="790" y2="443"/>
	<line id="L2B2" class="st1" x1="530" y1="401" x2="790" y2="443"/>
	<line id="L2C1" class="st1" x1="530" y1="401" x2="271" y2="443"/>
	<line id="L2C2" class="st1" x1="352" y1="710" x2="271" y2="443"/>
	<line id="L3A" class="st2" x1="530" y1="401" x2="530" y2="294"/>
	<line id="L4A2" class="st3" x1="530" y1="294" x2="790" y2="443"/>
	<line id="L4A1" class="st3" x1="530" y1="294" x2="271" y2="443"/>
	<line id="L3B" class="st2" x1="352" y1="710" x2="271" y2="745"/>
	<line id="L3C" class="st2" x1="709" y1="710" x2="790" y2="745"/>
	<line id="L4C1" class="st3" x1="271" y1="745" x2="271" y2="443"/>
	<line id="L4C2" class="st3" x1="790" y1="745" x2="530" y2="893"/>
	<line id="L4B1" class="st3" x1="790" y1="745" x2="790" y2="443"/>
	<line id="L4B2" class="st3" x1="271" y1="745" x2="530" y2="893"/>
	<g>
		<path class="st4" d="M600,613.74c-3-30-15.92-38.16-28-41-10.23-2.41-6.83,7-42,7s-31.77-9.41-42-7c-12.08,2.84-25,11-28,41s-8,41,0,47,27-32,37-34,15,9,33,9,23-11,33-9,29,40,37,34S603,643.74,600,613.74Z" />
		<path class="st4" d="M565.79,526.26c-1.53-15.33-8.14-19.51-14.32-21-5.23-1.23-3.49,3.58-21.47,3.58s-16.24-4.81-21.47-3.58c-6.18,1.45-12.79,5.63-14.32,21s-4.09,21,0,24,13.8-16.37,18.92-17.39,7.67,4.6,16.87,4.6,11.76-5.62,16.87-4.6,14.83,20.45,18.92,17.39S567.33,541.6,565.79,526.26Z"/>
	</g>
	<g id="NAME">
		<path d="M976.7,506.2c0-20.9,0-40.5,0.6-51.3h-0.1c-4.9,14.3-26.2,64.8-41.7,100.8H928c-11.4-27.9-34.6-85.5-40.2-100.6h-0.1
			c1,12.3,1.2,36.1,1.2,54.3v46.3h-8.3V447.3h12.2c15.5,36.6,36.5,88.8,39.4,96.2h0.1c5-11.5,26.3-62.5,40.3-96.2h12.6v108.4h-8.6
			V506.2z"/>
		<path d="M1026.6,518.4l-15,37.2h-9.1l43.9-108.4h9.6l45.6,108.4h-9.6l-15.5-37.2H1026.6z M1073,509.6c-13.6-32.6-20-47.5-22.2-54.3
			h-0.1c-1.9,6.5-9.4,26.1-20.8,54.3H1073z"/>
		<path d="M1128,506.3v49.3h-8.6V447.3h43.7c19,0,32.8,9.1,32.8,28.7c0,12.6-5.3,22.3-18.6,25.8c7.8,2.1,15.9,8.2,15.9,26.9v4.4
			c0,8.8,0,18.4,1.1,22.6h-8.9c-1.4-4.7-1-14-1-21.7v-3.6c0-18.7-6.7-24-25.6-24H1128z M1128,497.7h32.6c17.5,0,26.3-6.7,26.3-21.6
			c0-13.5-8.9-20-25.6-20H1128V497.7z"/>
		<path d="M1231.1,447.3v108.4h-8.6V447.3H1231.1z"/>
		<path d="M1357.3,501.1c0,31-19.1,56.8-50.9,56.8c-30.9,0-51.3-25-51.3-56.9c0-30.2,20.5-56,51.3-56
			C1336.5,445,1357.3,470.8,1357.3,501.1z M1264.3,500.5c0,24.7,14.8,48.6,42.1,48.6c26.5,0,41.7-20.9,41.7-47.7
			c0-24.1-15.2-47.7-42.5-47.7C1280.5,453.8,1264.3,475.2,1264.3,500.5z"/>
		<path d="M976.7,688.3c0-20.9,0-40.5,0.6-51.3h-0.1c-4.9,14.3-26.2,64.8-41.7,100.8H928c-11.4-27.9-34.6-85.5-40.2-100.6h-0.1
			c1,12.3,1.2,36.1,1.2,54.3v46.3h-8.3V629.4h12.2c15.5,36.6,36.5,88.8,39.4,96.2h0.1c5-11.5,26.3-62.5,40.3-96.2h12.6v108.4h-8.6
			V688.3z"/>
		<path d="M1026.6,700.6l-15,37.2h-9.1l43.9-108.4h9.6l45.6,108.4h-9.6l-15.5-37.2H1026.6z M1073,691.8c-13.6-32.6-20-47.5-22.2-54.3
			h-0.1c-1.9,6.5-9.4,26.1-20.8,54.3H1073z"/>
		<path d="M1128,688.4v49.3h-8.6V629.4h43.7c19,0,32.8,9.1,32.8,28.7c0,12.6-5.3,22.3-18.6,25.8c7.8,2.1,15.9,8.2,15.9,26.9v4.4
			c0,8.8,0,18.4,1.1,22.6h-8.9c-1.4-4.7-1-14-1-21.7v-3.6c0-18.7-6.7-24-25.6-24H1128z M1128,679.8h32.6c17.5,0,26.3-6.7,26.3-21.6
			c0-13.5-8.9-20-25.6-20H1128V679.8z"/>
		<path d="M1246.9,638.2h-39.2v-8.8h87.3v8.8h-39.2v99.6h-8.9V638.2z"/>
		<path d="M1347.1,597.7l-25.9,21.1h-9.7l23.6-21.1H1347.1z M1320.8,629.4v108.4h-8.6V629.4H1320.8z"/>
		<path d="M1351.3,737.8V629.4h10.5c19.3,27.3,62.1,86.5,67.4,96.7h0.3c-0.8-15.5-0.7-31-0.7-48.4v-48.3h8.3v108.4H1427
			c-17.5-24.6-60-85.5-67.8-98h-0.3c0.7,14.1,0.7,29.4,0.7,48.6v49.5H1351.3z"/>
		<path d="M1537.7,684.8h-61.5v44.3h67.6l-1.4,8.7h-74.8V629.4h73.3v8.7h-64.7v38.1h61.5V684.8z"/>
		<path d="M1558.2,730.8l74-92.7h-70.5v-8.7h82.5v7.1l-73.7,92.6h76.5l-1.7,8.7h-87V730.8z"/>
	</g>
	<g id="TITLE">
		<path d="M717.4,921.9c2,4.9,11,26.9,12.2,30.2h0.1c0.7-2.2,2.7-7.5,11.9-30.2h3.8l-13.9,34.3h-3.8l-14.1-34.3H717.4z"/>
		<path d="M752,911.6v-7.3h3.6v7.3H752z M752,921.9h3.6v34.3H752V921.9z"/>
		<path d="M794.3,904.4V946c0,3.4,0,6.8,0.1,10.1H791c-0.2-1.7-0.2-4-0.2-5.9c-1.5,3-4.4,6.9-12,6.9c-9.1,0-14.9-7.6-14.9-17.8
			c0-11.1,7.3-18.4,15.5-18.4c7.9,0,10.5,4.4,11.3,6.2v-22.8H794.3z M779.1,953.4c8.6,0,11.9-6.1,11.9-14.6c0-8.4-2.6-14.3-11.6-14.3
			c-7.9,0-11.8,7.3-11.8,14.7C767.6,946,771.4,953.4,779.1,953.4z"/>
		<path d="M806.2,939.9c0.4,7.9,5.1,13.6,12.3,13.6c5.4,0,8.6-2.7,10.5-6.7h3.6c-1.6,4.6-5.8,10.3-14.6,10.3
			c-10.2,0-15.5-8.8-15.5-18c0-10.8,6.4-18.2,15.3-18.2c11.5,0,15.3,9.7,15.3,17.7v1.2H806.2z M829.2,936.4
			c-0.3-4.9-2.6-11.9-11.4-11.9c-7,0-10.8,5.1-11.5,11.9H829.2z"/>
		<path d="M870.7,939.1c0,8.9-5,18.1-15.8,18.1c-9.9,0-15.6-8.6-15.6-18c0-10.1,6.2-18.2,15.9-18.2C865,921,870.7,929.7,870.7,939.1z
			M842.9,939.1c0,7.1,4.4,14.3,12.1,14.3c8.1,0,12-6.6,12-14.3c0-7.8-4.5-14.5-12.1-14.5C846.8,924.6,842.9,931.4,842.9,939.1z"/>
		<path d="M925.6,951.3c0,13.2-3.3,21.2-15.8,21.2c-11.2,0-13.7-7.4-14.4-11.5h3.7c1,4.2,3.6,7.9,10.8,7.9c10.5,0,12.1-7.5,12.1-17.4
			v-2.1c-1.9,4.7-5.7,7.5-12.4,7.5c-8.6,0-14.6-7.5-14.6-17.4c0-11.2,7.3-18.5,15.3-18.5c7.4,0,10.6,3.9,11.6,7c0-1.9,0.1-5,0.2-6
			h3.4c-0.1,3.3-0.1,6.6-0.1,9.9V951.3z M910.4,953c7.3,0,11.8-5.1,11.8-14.2c0-9.3-4.3-14.2-11.4-14.2c-8.3,0-12,7.6-12,14.6
			C898.8,947.5,903.8,953,910.4,953z"/>
		<path d="M961.4,948.3c0,2.7,0.2,7.1,0.3,7.9h-3.5c-0.2-1.5-0.4-4.5-0.4-5.6c-1.6,3.8-5.1,6.6-12,6.6c-8.9,0-12-6-12-10.9
			c0-8.6,7.2-11.1,15.8-11.1h8.1V933c0-4.3-1.7-8.5-9.4-8.5c-6.8,0-8.5,3.5-9.2,7.3h-3.6c0.4-4.7,3.2-10.8,12.9-10.8
			c10,0,12.8,5.5,12.8,11.2V948.3z M957.9,938.5h-8c-8.3,0-12.3,1.9-12.3,7.5c0,4,2.6,7.5,8.6,7.5c9.7,0,11.7-6.8,11.7-13.1V938.5z"
			/>
		<path d="M972.7,930.8c0-2.9,0-5.9-0.1-8.8h3.5c0.1,1.4,0.2,3.6,0.1,5.7c1.5-3.2,4.6-6.6,10.3-6.6c4.9,0,8.1,2.7,9.6,7.1
			c1.7-3.2,4.6-7.1,10.7-7.1c5.9,0,10.7,3.7,10.7,13.8v21.4h-3.6v-21.2c0-4.5-1.3-10.3-7.6-10.3c-5.7,0-9.5,4.5-9.5,12.8v18.7h-3.6
			v-21.6c0-4.5-1.4-9.9-7.6-9.9c-6.8,0-9.4,6.1-9.4,13.5v18h-3.6V930.8z"/>
		<path d="M1029.5,939.9c0.4,7.9,5.1,13.6,12.3,13.6c5.4,0,8.6-2.7,10.5-6.7h3.6c-1.6,4.6-5.8,10.3-14.6,10.3
			c-10.2,0-15.5-8.8-15.5-18c0-10.8,6.4-18.2,15.3-18.2c11.5,0,15.3,9.7,15.3,17.7v1.2H1029.5z M1052.4,936.4
			c-0.3-4.9-2.6-11.9-11.4-11.9c-7,0-10.8,5.1-11.5,11.9H1052.4z"/>
		<path d="M1111,904.4V946c0,3.4,0,6.8,0.1,10.1h-3.4c-0.2-1.7-0.2-4-0.2-5.9c-1.5,3-4.4,6.9-12,6.9c-9.1,0-14.9-7.6-14.9-17.8
			c0-11.1,7.3-18.4,15.5-18.4c7.9,0,10.5,4.4,11.3,6.2v-22.8H1111z M1095.8,953.4c8.6,0,11.9-6.1,11.9-14.6c0-8.4-2.6-14.3-11.6-14.3
			c-7.9,0-11.8,7.3-11.8,14.7C1084.3,946,1088.1,953.4,1095.8,953.4z"/>
		<path d="M1122.9,939.9c0.4,7.9,5.1,13.6,12.3,13.6c5.4,0,8.6-2.7,10.5-6.7h3.6c-1.6,4.6-5.8,10.3-14.6,10.3
			c-10.2,0-15.5-8.8-15.5-18c0-10.8,6.4-18.2,15.3-18.2c11.5,0,15.3,9.7,15.3,17.7v1.2H1122.9z M1145.9,936.4
			c-0.3-4.9-2.6-11.9-11.4-11.9c-7,0-10.8,5.1-11.5,11.9H1145.9z"/>
		<path d="M1159,945.9c1.3,4.9,5,7.7,11.4,7.7c6.9,0,9.5-2.8,9.5-6.6c0-3.4-1.7-5.9-10.4-7c-10.4-1.3-12.6-5.2-12.6-9.5
			c0-4,3-9.5,12.4-9.5c10.5,0,13.1,6.3,13.3,10h-3.7c-0.5-2.3-1.8-6.5-9.9-6.5c-6.8,0-8.4,3.4-8.4,5.8c0,3.2,1.7,5.1,9.5,6.2
			c11.1,1.5,13.5,5.1,13.5,10.4c0,6.1-4.2,10.3-13.4,10.3s-13.7-4.4-14.8-11.2H1159z"/>
		<path d="M1192,911.6v-7.3h3.6v7.3H1192z M1192,921.9h3.6v34.3h-3.6V921.9z"/>
		<path d="M1234.3,951.3c0,13.2-3.3,21.2-15.8,21.2c-11.2,0-13.7-7.4-14.4-11.5h3.7c1,4.2,3.6,7.9,10.8,7.9
			c10.5,0,12.1-7.5,12.1-17.4v-2.1c-1.9,4.7-5.7,7.5-12.4,7.5c-8.6,0-14.6-7.5-14.6-17.4c0-11.2,7.3-18.5,15.3-18.5
			c7.4,0,10.6,3.9,11.6,7c0-1.9,0.1-5,0.2-6h3.4c-0.1,3.3-0.1,6.6-0.1,9.9V951.3z M1219.1,953c7.3,0,11.8-5.1,11.8-14.2
			c0-9.3-4.3-14.2-11.4-14.2c-8.3,0-12,7.6-12,14.6C1207.5,947.5,1212.5,953,1219.1,953z"/>
		<path d="M1245.4,930.6c0-2.9,0-6-0.1-8.6h3.5c0.1,1.3,0.2,4.5,0.2,7.4c1.3-3.8,4.7-8.4,11.7-8.4c7,0,11.8,4.8,11.8,14.5v20.7h-3.6
			v-19.9c0-6.6-2.2-11.6-8.7-11.6c-7.5,0-11.2,6.5-11.2,15.4v16.1h-3.6V930.6z"/>
		<path d="M1284.3,939.9c0.4,7.9,5.1,13.6,12.3,13.6c5.4,0,8.6-2.7,10.5-6.7h3.6c-1.6,4.6-5.8,10.3-14.6,10.3
			c-10.2,0-15.5-8.8-15.5-18c0-10.8,6.4-18.2,15.3-18.2c11.5,0,15.3,9.7,15.3,17.7v1.2H1284.3z M1307.3,936.4
			c-0.3-4.9-2.6-11.9-11.4-11.9c-7,0-10.8,5.1-11.5,11.9H1307.3z"/>
		<path d="M1319.6,931.2c0-3.1,0-6.2-0.1-9.3h3.5c0.1,0.9,0.2,4.4,0.2,8.2c2.2-5.6,7-9.1,12.8-9.1v4.1c-7.1-0.1-12.8,5.5-12.8,15.8
			v15.3h-3.6V931.2z"/>
	</g>
</svg>
