<svg data-name="Capa 1" xmlns="http://www.w3.org/2000/svg" viewBox="0 0 566.1886 333.2182">
  <g>
    <path class="fill" d="M282.859,9.2376,419.0522,87.8688V245.1312L282.859,323.7624,146.6657,245.1312V87.8688L282.859,9.2376m0-9.2376L138.6657,83.25v166.5L282.859,333l144.1932-83.25V83.25L282.859,0Z"/>
    <polygon class="cls-1" points="282.859 330.356 380.58 230.308 424.762 84.572 282.859 61.613 140.956 84.572 185.138 230.308 282.859 330.356"/>
    <polygon class="cls-1" points="282.859 61.237 185.3 230.214 380.418 230.214 282.859 61.237"/>
    <line class="cls-2" x1="427.0522" y1="249.5203" x2="380.1894" y2="230.4486"/>
    <line class="cls-1" x1="138.6657" y1="249.5203" x2="185.5285" y2="230.4486"/>
    <line class="cls-1" x1="282.859" y1="61.6224" x2="282.859" y2="3.1902"/>
  </g>
  <g>
    <line class="cls-3" x1="78.359" y1="166" x2="487.8296" y2="166"/>
    <polygon class="fill" points="94.291 220.451 0 166.005 94.291 111.555 94.291 220.451"/>
    <polygon class="fill" points="471.897 220.451 566.189 166.005 471.897 111.555 471.897 220.451"/>
  </g>
</svg>
