<svg id="Capa_1" data-name="Capa 1" xmlns="http://www.w3.org/2000/svg" viewBox="0 0 523.0763 333.2182">
  <defs>
    <style>
      
    </style>
  </defs>
  <g>
    <path class="cls-3" d="M282.859,9.2376,419.0522,87.8688V245.1312L282.859,323.7624,146.6657,245.1312V87.8688L282.859,9.2376m0-9.2376L138.6657,83.25v166.5L282.859,333l144.1932-83.25V83.25L282.859,0Z" transform="translate(-21.3209)"/>
    <polygon class="cls-1" points="261.538 330.356 359.259 230.308 403.442 84.572 261.538 61.613 119.635 84.572 163.817 230.308 261.538 330.356"/>
    <polygon class="cls-1" points="261.538 61.237 163.98 230.214 359.097 230.214 261.538 61.237"/>
    <line class="cls-2" x1="405.7314" y1="249.5203" x2="358.8686" y2="230.4486"/>
    <line class="cls-1" x1="117.3449" y1="249.5203" x2="164.2077" y2="230.4486"/>
    <line class="cls-1" x1="261.5381" y1="61.6224" x2="261.5381" y2="3.1902"/>
  </g>
  <path class="cls-3" d="M309.5965,159.4953V176.319l15.2421,7.6129v1.73l17.5159,7.6129v1.7607l14.0045,7.613v66.9285H304.412l-42.553-44.4664,6.2287-9.6891,26.6453,10.7273V151.8824S310.547,159.4953,309.5965,159.4953Z" transform="translate(-21.3209)"/>
  </g>
</svg>
