<svg id="Capa_1" data-name="Capa 1" xmlns="http://www.w3.org/2000/svg" viewBox="0 0 86.603 100">
  <path d="M86.603,75V25L43.301,0,0,25V75l43.301,25Z" style="fill: #088;opacity: 0.5;isolation: isolate"/>
  <path d="M43.301,2.309,84.602,26.154V73.845L43.301,97.691,2,73.845V26.155L43.301,2.309m0-2.309L0,25V75l43.301,25L86.602,75V25Z" style="fill: aqua"/>
  <g>
    <circle cx="40.1306" cy="46.8291" r="20.0137" style="fill: none;stroke: aqua;stroke-miterlimit: 10;stroke-width: 3px"/>
    <path d="M56.616,58.1665a20.1136,20.1136,0,0,1-5.148,5.148l9.25,9.25a2.1165,2.1165,0,0,0,2.9931,0L65.8662,70.41a2.1165,2.1165,0,0,0,0-2.9931Z" style="fill: aqua"/>
    <path d="M50.0071,36.9527A13.9674,13.9674,0,0,0,30.2542,56.7056" style="fill: none;stroke: aqua;stroke-miterlimit: 10"/>
  </g>
</svg>
