<svg id="Capa_1" data-name="Capa 1" xmlns="http://www.w3.org/2000/svg" xmlns:xlink="http://www.w3.org/1999/xlink" viewBox="0 0 16 16"><defs><style>.cls-1{fill:url(#Degradado_sin_nombre_2);}.cls-2,.cls-3{fill:none;stroke:#a9fbff;stroke-linecap:round;stroke-linejoin:round;}.cls-2{stroke-width:0.19px;}.cls-3{stroke-width:0.37px;}</style><linearGradient id="Degradado_sin_nombre_2" x1="16" y1="0.4" x2="16" y2="15.49" gradientUnits="userSpaceOnUse"><stop offset="0" stop-color="#074a4f"/><stop offset="1" stop-color="#01393f"/></linearGradient></defs><rect class="cls-1" width="32" height="16"/><line id="L1C" class="cls-2" x1="4.56" y1="10.24" x2="7.99" y2="4.29"/><line id="L1B" class="cls-2" x1="7.99" y1="4.29" x2="11.44" y2="10.26"/><line id="L1A" class="cls-2" x1="11.44" y1="10.26" x2="4.56" y2="10.26"/><line id="L2A1" class="cls-2" x1="4.56" y1="10.26" x2="7.99" y2="13.77"/><line id="L2A2" class="cls-2" x1="7.99" y1="13.77" x2="11.44" y2="10.26"/><line id="L2B1" class="cls-2" x1="11.44" y1="10.26" x2="13" y2="5.1"/><line id="L2B2" class="cls-2" x1="13" y1="5.1" x2="7.99" y2="4.29"/><line id="L2C1" class="cls-2" x1="7.99" y1="4.29" x2="3" y2="5.1"/><line id="L2C2" class="cls-2" x1="3" y1="5.1" x2="4.56" y2="10.24"/><line id="L3A" class="cls-2" x1="7.99" y1="4.29" x2="7.99" y2="2.23"/><line id="L4A2" class="cls-3" x1="7.99" y1="2.23" x2="13" y2="5.1"/><line id="L4A1" class="cls-3" x1="7.99" y1="2.23" x2="3" y2="5.1"/><line id="L3B" class="cls-2" x1="4.56" y1="10.24" x2="3" y2="10.92"/><line id="L3C" class="cls-2" x1="11.44" y1="10.24" x2="13" y2="10.92"/><line id="L4C1" class="cls-3" x1="3" y1="10.92" x2="3" y2="5.1"/><line id="L4C2" class="cls-3" x1="13" y1="10.92" x2="7.99" y2="13.77"/><line id="L4B1" class="cls-3" x1="13" y1="10.92" x2="13" y2="5.1"/><line id="L4B2" class="cls-3" x1="3" y1="10.92" x2="7.99" y2="13.77"/><path class="cls-2" d="M9.37,8.26c-.06-.57-.31-.73-.54-.79s-.13.14-.81.14-.61-.18-.81-.14-.48.22-.54.79-.15.79,0,.91.52-.62.71-.66.29.18.64.18.44-.21.64-.18.55.77.71.66S9.43,8.84,9.37,8.26Z"/><path class="cls-2" d="M8.71,6.58c0-.3-.16-.38-.28-.41s-.06.07-.41.07-.31-.09-.41-.07-.25.11-.28.41-.08.4,0,.46.27-.31.36-.33.15.08.33.08.23-.1.32-.08.29.39.37.33S8.74,6.87,8.71,6.58Z"/></svg>