<svg xmlns="http://www.w3.org/2000/svg" xmlns:xlink="http://www.w3.org/1999/xlink" viewBox="0 0 16 16"><defs><style>.cls-1{isolation:isolate;}.cls-2{fill:#bababa;}.cls-3{fill:#a0a0a0;}.cls-4{fill:#ddd;}.cls-5{fill:#d3d3d3;}.cls-6{fill:#fff;}.cls-7{fill:#e5e5e5;}.cls-8{fill:#bcbcbc;}.cls-9{fill:#262626;}.cls-10{mix-blend-mode:overlay;fill:url(#Degradado_sin_nombre_15);}</style><linearGradient id="Degradado_sin_nombre_15" x1="4.36" y1="4.71" x2="11.62" y2="11.16" gradientUnits="userSpaceOnUse"><stop offset="0" stop-color="#2b9cff"/><stop offset="1" stop-color="#0fba5d"/></linearGradient></defs><g class="cls-1"><g id="Capa_1" data-name="Capa 1"><polygon class="cls-2" points="8 16 1.01 11.95 3.29 11.02 8 16"/><polygon class="cls-3" points="8 16 14.99 11.95 12.71 11.02 8 16"/><polygon class="cls-4" points="3.29 11.02 12.71 11.02 8 16 3.29 11.02"/><polygon class="cls-5" points="3.29 11.02 1.01 3.96 1.01 11.95 3.29 11.02"/><polygon class="cls-6" points="3.29 11.02 8 2.84 12.71 11.02 3.29 11.02"/><polygon class="cls-7" points="1.01 3.96 8 2.84 3.29 11.02 1.01 3.96"/><polygon class="cls-5" points="8 2.84 14.99 3.96 12.71 11.02 8 2.84"/><polygon class="cls-8" points="14.99 11.95 14.99 3.96 12.71 11.02 14.99 11.95"/><polygon class="cls-5" points="1.01 3.96 8 0.01 8 2.84 1.01 3.96"/><polygon class="cls-2" points="14.99 3.96 8 0.01 8 2.84 14.99 3.96"/><path class="cls-9" d="M9.8,8.43c-.08-.79-.42-1-.74-1.09s-.18.19-1.11.19-.85-.25-1.12-.19-.66.3-.74,1.09-.21,1.08,0,1.24.72-.84,1-.9S7.47,9,8,9s.6-.29.87-.24.77,1.06,1,.9S9.88,9.22,9.8,8.43Z"/><path class="cls-9" d="M8.89,6.11c0-.4-.21-.51-.38-.55s-.09.09-.56.09-.43-.12-.57-.09S7,5.71,7,6.11s-.11.56,0,.64.36-.43.5-.46.2.12.45.12.31-.15.44-.12.39.54.5.46S8.93,6.52,8.89,6.11Z"/><polygon class="cls-10" points="8 0 1.01 3.94 1.01 3.94 1.01 11.94 8 15.99 14.99 11.94 14.99 3.94 8 0"/></g></g></svg>